<svg width="1842" height="580" viewBox="0 0 1842 580" fill="none" xmlns="http://www.w3.org/2000/svg">
<path d="M430.049 506.326C425.324 506.176 421.199 505.876 417.149 506.476C383.849 506.401 350.474 506.251 317.174 506.326C242.324 506.476 167.4 506.626 92.5498 506.926C73.3498 507.001 56.6249 500.926 41.6249 488.701C34.7999 483.151 27.0749 478.726 20.925 472.201C18.225 465.901 14.1 460.576 9.74998 455.401C7.79998 453.076 6.37499 450.676 5.17499 447.901C0.899998 438.301 0 428.101 0 417.826C0 352.726 0.224999 287.626 0.299999 222.45C0.374999 175.575 0.224999 128.775 0.149999 81.9001C0.149999 73.3501 1.725 65.1001 4.94999 57.2251C11.475 41.3251 23.9999 30.0751 35.9249 18.75C46.7999 8.47502 60.6749 2.85001 75.5998 0.450001C78.2998 0.300001 81.0748 0 83.7748 0H479.249C492.449 0 505.724 0 517.874 6.45001C519.224 7.20001 520.949 7.27501 522.449 7.65001C533.174 14.475 543.074 22.425 551.399 31.9501C561.974 44.0251 572.174 56.6251 573.374 73.7251C573.599 77.1001 573.749 80.4751 573.974 83.9252C573.824 85.5002 573.599 87.0752 573.599 88.6502C573.599 128.475 573.674 168.375 573.749 208.2C573.749 209.775 574.049 211.35 574.274 212.925C573.449 215.625 573.899 218.4 573.899 221.1C573.974 270.9 574.199 320.776 574.199 370.576C574.199 388.426 573.899 406.201 573.749 424.051C573.599 427.051 573.374 428.851 573.524 431.551C573.524 434.626 574.049 435.451 572.699 436.726C568.949 440.401 566.624 445.201 563.324 449.176C558.299 455.326 552.374 461.026 548.774 467.926C543.299 478.351 534.749 480.451 524.474 480.151C511.574 479.776 498.674 480.826 485.549 479.026C486.674 486.826 486.449 494.401 489.524 501.376C492.974 509.101 495.074 517.276 497.549 525.301C502.349 540.901 508.124 556.276 511.574 572.326C508.424 571.876 506.624 569.326 504.374 567.526M163.425 114.15C150.825 111.75 138.975 115.05 128.1 120.675C117.675 126 108.15 133.05 99.1498 140.85C92.6248 146.55 90.3748 151.875 93.5248 159.675C94.2748 162.975 92.7748 165.975 91.8748 168.975C87.2998 184.2 82.6498 199.5 79.7998 215.175C74.0248 247.125 81.1498 277.201 93.8998 306.301C98.0248 315.676 102.225 325.051 104.4 335.101C107.25 348.226 108.675 361.576 108.45 375.076C108.15 389.701 108 404.326 108.45 418.951C108.525 420.601 107.775 422.551 109.5 423.976C111.975 422.626 113.25 420.301 114.225 418.126C116.55 413.176 120.45 409.651 124.725 406.651C128.85 403.801 132.525 400.651 135.975 396.976C143.7 388.726 153.15 382.276 161.1 374.251C167.85 367.501 175.05 366.376 183.525 369.976C189.75 372.601 195.825 375.751 202.425 377.626C222.374 383.326 242.849 387.151 263.324 389.626C282.524 391.951 302.024 391.651 321.299 388.801C339.524 386.176 357.374 381.676 375.449 378.226C390.749 375.301 404.174 368.551 416.324 358.951C417.524 357.976 419.099 357.376 420.449 356.551C427.724 351.901 435.224 347.476 442.274 342.526C454.649 333.826 464.549 322.426 474.599 311.251C478.274 307.126 481.499 302.626 483.074 297.301C487.724 281.926 494.099 267.075 497.024 251.1C498.449 243.225 500.174 235.65 497.099 227.625C494.999 222.15 493.874 216.225 492.599 210.45C486.749 182.7 474.374 158.7 452.774 139.8C450.224 137.55 448.049 134.925 445.199 132.975C434.849 125.925 423.899 119.85 413.099 113.475C408.749 110.925 404.924 107.775 399.299 110.1C397.574 110.85 395.324 109.65 393.449 108.675C388.499 106.275 383.474 104.1 378.599 101.7C375.524 100.2 371.924 99.0752 369.749 96.6752C365.249 91.6502 359.999 89.0252 353.324 89.0252C351.749 89.0252 350.174 88.6502 348.599 88.3502C334.724 85.6502 320.624 84.1502 306.599 83.4752C284.324 82.4251 262.049 83.3251 239.924 86.9252C225.749 89.2502 211.725 91.7252 197.925 95.4752C194.85 96.3002 191.475 96.9002 189.45 99.5252C184.65 105.675 178.2 110.025 172.5 115.275C169.425 114.9 166.425 114.525 163.425 114.15Z" fill="#0192FA"/>
<path d="M548.25 474.9C541.2 481.5 532.425 485.4 524.175 490.2C517.95 493.875 510.675 495.6 504.45 500.925C505.725 508.125 507.075 515.625 508.425 523.125C508.5 524.25 508.35 525.45 508.65 526.5C511.875 537.6 513.075 549.075 515.475 560.325C516.825 566.625 518.025 572.925 517.275 579.75C515.4 577.275 513.525 574.875 511.65 572.4C508.2 556.35 502.425 541.05 497.625 525.375C495.15 517.35 493.05 509.175 489.6 501.45C486.45 494.475 486.675 486.9 485.625 479.1C498.825 480.9 511.725 479.85 524.55 480.225C534.825 480.525 543.375 478.425 548.85 468C552.45 461.1 558.375 455.4 563.4 449.25C566.7 445.2 568.95 440.475 572.775 436.8" fill="#111214"/>
<path d="M123.45 374.701C122.475 377.851 124.275 380.101 125.475 382.351C132.525 381.376 135.825 375.076 141.6 372.976C146.7 371.026 150.375 367.351 153.6 363.301C159.375 355.951 166.725 351.601 175.875 350.176C182.925 353.851 189.75 358.126 197.55 360.151C203.325 364.726 210.75 365.626 217.2 368.776C226.5 373.276 236.475 376.126 247.05 376.201C266.4 380.026 285.975 379.426 305.475 378.751C317.025 378.376 328.501 376.726 339.826 374.251C357.151 370.426 373.351 363.376 389.776 357.001C390.901 357.301 391.951 357.076 393.076 356.626C400.351 353.476 406.876 349.126 413.626 344.926C422.926 339.151 431.551 332.551 439.726 325.426C443.776 321.901 448.576 319.126 451.501 314.401C452.926 314.026 453.751 312.975 454.201 311.625C456.076 310.8 457.276 309.375 458.026 307.5C462.676 300.225 467.701 293.175 471.976 285.75C475.576 279.45 479.776 273.6 481.651 266.25C485.251 252.15 485.326 237.825 484.276 223.575C483.826 216.825 482.926 209.925 479.326 203.925C477.526 201 476.176 198 475.351 194.625C473.926 188.775 471.451 183.375 464.851 181.95C460.576 169.425 455.776 158.1 442.876 151.875C435.901 148.5 430.426 142.05 424.051 137.4C413.176 129.525 400.651 124.65 388.426 119.175C380.926 115.8 373.201 113.25 365.326 110.925C357.001 108.525 348.451 107.1 340.201 104.7C326.251 100.575 312.3 96.4502 297.675 95.7002C279.675 94.7252 261.75 94.8002 244.275 100.2C237.15 102.375 230.1 105.15 222.825 106.725C208.8 109.8 195.45 114.6 183.3 122.175C180.75 120.75 179.85 116.7 175.95 117.975C174.825 117.15 173.625 116.25 172.5 115.425C178.2 110.25 184.65 105.9 189.45 99.6752C191.55 96.9752 194.925 96.4502 197.925 95.6252C211.725 91.9502 225.825 89.4002 239.925 87.0752C262.125 83.4752 284.325 82.5752 306.6 83.6252C320.625 84.3002 334.726 85.7252 348.601 88.5002C350.176 88.8002 351.751 89.1752 353.326 89.1752C360.001 89.1752 365.251 91.8002 369.751 96.8252C371.926 99.2252 375.526 100.35 378.601 101.85C383.551 104.25 388.576 106.425 393.451 108.825C395.326 109.725 397.576 110.925 399.301 110.25C404.926 107.925 408.676 111.075 413.101 113.625C423.901 119.925 434.851 126.075 445.201 133.125C448.051 135.075 450.226 137.7 452.776 139.95C474.376 158.85 486.751 182.85 492.601 210.6C493.801 216.375 495.001 222.3 497.101 227.775C500.176 235.8 498.451 243.375 497.026 251.25C494.101 267.225 487.801 282.075 483.076 297.451C481.501 302.701 478.201 307.276 474.601 311.401C464.551 322.576 454.726 333.976 442.276 342.676C435.226 347.626 427.726 352.051 420.451 356.701C419.101 357.526 417.526 358.126 416.326 359.101C404.176 368.701 390.751 375.451 375.451 378.376C357.376 381.826 339.526 386.326 321.301 388.951C301.95 391.726 282.525 392.101 263.325 389.776C242.775 387.301 222.375 383.476 202.425 377.776C195.825 375.901 189.825 372.751 183.525 370.126C175.05 366.526 167.85 367.651 161.1 374.401C153.15 382.351 143.7 388.876 135.975 397.126C132.525 400.801 128.85 403.951 124.725 406.801C120.45 409.801 116.55 413.326 114.225 418.276C113.25 420.451 111.975 422.701 109.5 424.126C107.775 422.701 108.525 420.751 108.45 419.101C108 404.476 108.15 389.851 108.45 375.226C108.75 361.726 107.25 348.376 104.4 335.251C102.225 325.201 98.025 315.826 93.9 306.451C81.15 277.275 74.025 247.275 79.8 215.325C82.65 199.65 87.3 184.425 91.875 169.125C92.775 166.125 94.275 163.125 93.525 159.825C94.575 160.725 95.625 161.625 97.95 161.325C105.375 152.55 114.225 144.375 125.625 134.775C132.225 130.875 141.9 128.25 152.475 128.55C154.725 129.825 156.975 131.175 159.225 132.45C159.75 133.65 161.325 134.25 160.875 136.5C157.275 137.85 155.325 141.525 153.225 144.825C143.325 142.35 135.45 147.75 126.6 150.225C123.675 155.475 117.75 158.55 114.375 163.35C106.5 174.675 100.35 186.975 96.6 200.4C89.775 215.925 88.275 232.425 88.8 249.075C88.875 252 89.025 255.525 91.65 257.85C93.75 268.05 98.025 277.5 101.7 287.175C105.525 300.45 109.275 313.801 113.325 327.076" fill="#111214"/>
<path d="M152.4 128.4C141.9 128.1 132.15 130.725 125.55 134.625C114.15 144.15 105.3 152.4 97.8753 161.175C95.5503 161.475 94.5003 160.5 93.4503 159.675C90.3003 151.875 92.5503 146.55 99.0753 140.85C108.075 133.05 117.6 126 128.025 120.675C138.9 115.125 150.75 111.75 163.35 114.15C163.95 114.825 164.475 115.5 165.225 116.325C162.675 118.5 159.6 119.925 156.825 121.65C154.425 123.15 151.575 124.575 152.4 128.4Z" fill="#E3ECF0"/>
<path d="M152.4 128.4C151.575 124.575 154.5 123.15 156.9 121.65C159.75 119.925 162.75 118.5 165.3 116.325C164.55 115.5 163.95 114.825 163.425 114.15L172.425 115.275C173.55 116.1 174.75 117 175.875 117.825C174.75 122.925 170.55 118.875 168.15 120.225C167.25 122.625 166.425 124.875 165.6 127.05C163.125 128.55 159.45 128.325 159.15 132.225C156.9 131.025 154.65 129.675 152.4 128.4Z" fill="#DFEAEE"/>
<path d="M413.025 277.426H419.025C425.1 271.426 432.075 266.626 433.575 257.776C434.925 249.75 435.6 241.8 434.475 233.625C433.65 227.7 430.65 221.775 433.875 215.55C429.525 210.225 423.375 207.3 419.925 202.725C417.225 201.525 414.9 202.5 413.175 201.15C411.45 199.65 409.8 198.15 408.45 196.95C393.9 194.55 381.075 198.525 368.55 204.375C367.425 204.9 366.6 205.5 366.45 206.775C359.025 213.75 356.025 222.825 354.075 232.425C353.475 235.5 353.025 238.65 352.575 241.725C348 243.375 348.6 246.975 348.975 250.65C349.5 256.501 353.325 261.001 355.2 266.251C358.35 275.026 365.025 279.826 373.125 283.651C382.05 287.851 391.275 287.326 400.5 286.876C406.35 286.576 411.375 283.876 413.025 277.426ZM217.8 263.551C220.575 253.876 221.55 244.125 220.35 234.15C219.975 231.075 217.95 228.225 219.075 224.925C219.975 222.3 220.05 219.45 220.125 216.825C220.5 207 216.225 199.65 207.225 198C199.875 196.65 192.525 195.975 185.4 193.35C181.05 191.775 176.325 190.425 171.45 191.175C161.55 198.375 149.625 202.05 139.725 210.675C137.625 215.1 135.975 220.725 133.5 225.975C130.575 232.2 130.875 239.7 130.425 246.675C130.05 252.525 131.7 257.851 135.675 261.976C135.825 264.151 135.9 265.951 135.975 267.151C144.825 278.626 154.425 288.376 168.3 292.576C176.1 294.901 184.2 294.826 191.775 292.726C196.275 291.451 200.85 290.176 205.5 289.201C208.125 286.051 211.725 284.026 215.175 281.926C215.4 278.926 216.225 276.526 217.425 273.976C218.925 270.901 221.925 267.076 217.8 263.551ZM319.275 240C323.55 231.075 331.05 223.725 332.475 213.375C332.775 210.975 333.975 208.65 334.725 206.325C336.075 202.425 337.725 198.15 335.175 193.05C302.175 179.4 268.8 179.925 235.725 193.125C234.45 196.725 233.55 199.5 232.425 202.65C233.55 203.25 234.45 204.45 235.275 205.875C241.5 216.6 245.175 228.75 253.05 238.65C253.8 239.625 254.55 241.425 254.175 242.475C251.025 251.25 247.125 259.726 240.375 266.476C239.55 267.301 238.05 267.826 237.075 268.801C236.25 269.551 235.275 270.226 235.125 271.951C236.85 272.851 236.025 275.551 237.9 276.826C242.7 278.476 325.05 279.151 334.5 277.501C334.05 270.151 332.55 263.176 327.15 257.626C326.25 252.751 320.925 251.625 318.75 247.875C318 245.1 317.925 242.475 319.275 240ZM237.75 313.201H336.525C335.325 309.151 336.45 305.026 335.025 301.501C300.9 301.501 267.225 301.501 233.625 301.501C231.375 306.826 235.5 309.301 237.75 313.201Z" fill="#FCFCFB"/>
<path d="M389.775 357.075C389.775 348.075 390.225 347.775 398.625 344.175C405.825 341.1 413.025 337.95 420.375 335.325C426.15 333.3 430.425 329.025 433.875 324.375C437.175 319.875 441.225 316.5 445.575 313.35C447.75 312.6 449.4 314.625 451.5 314.475C448.575 319.2 443.775 322.05 439.725 325.5C431.475 332.625 422.925 339.225 413.625 345C406.875 349.2 400.35 353.55 393.075 356.7C391.95 357.15 390.9 357.3 389.775 357.075Z" fill="#E7EFF1"/>
<path d="M197.55 360.151C198.3 358.351 199.95 358.05 201.525 358.425C205.275 359.325 209.4 358.875 212.85 360.15C221.925 363.45 231.525 365.1 240.375 368.925C243.45 370.275 247.5 371.475 247.05 376.35C236.475 376.275 226.5 373.425 217.2 368.925C210.75 365.7 203.325 364.801 197.55 360.151Z" fill="#E3ECF0"/>
<path d="M123.45 374.701C126.075 374.626 127.95 376.875 130.575 377.175C137.55 371.85 143.475 365.25 149.625 358.95C153.6 354.825 158.025 351.525 163.05 348.9C167.925 346.425 172.05 346.8 175.8 350.25C166.65 351.675 159.375 356.1 153.525 363.375C150.3 367.425 146.7 371.1 141.525 373.05C135.75 375.225 132.45 381.45 125.4 382.425C124.275 380.1 122.475 377.851 123.45 374.701Z" fill="#DFEAEE"/>
<path d="M96.4502 200.25C98.5503 200.775 98.5503 201.975 98.1003 203.85C94.2002 219.225 92.4752 234.751 93.4502 250.576C93.6002 253.201 92.8502 255.526 91.5752 257.701C88.9502 255.376 88.8002 251.851 88.7252 248.926C88.1252 232.201 89.5502 215.775 96.4502 200.25Z" fill="#DFEAEE"/>
<path d="M454.2 311.701C454.275 310.651 454.35 309.676 454.425 308.851C455.475 307.426 456.825 307.576 458.025 307.576C457.275 309.451 456.075 310.801 454.2 311.701Z" fill="#E7EFF1"/>
<path d="M352.499 241.725C353.024 238.65 353.399 235.5 353.999 232.425C355.874 222.825 358.874 213.75 366.374 206.775C369.599 207 372.674 206.325 375.749 205.275C388.199 201.075 400.424 202.95 412.349 207.3C419.249 209.85 423.899 214.875 427.724 221.1C432.674 229.2 432.599 237.975 432.224 246.9C431.849 255.15 428.999 262.125 422.999 268.125C419.774 271.35 416.024 273.825 413.099 277.275C395.924 284.925 379.574 283.2 364.274 273.3C359.399 267.45 355.649 261.525 354.599 254.25C353.999 250.2 353.174 245.925 352.499 241.725ZM421.799 241.5C421.424 228.825 412.649 217.125 400.724 212.7C390.149 208.8 378.749 213.825 370.574 222C369.224 223.35 368.174 224.85 367.649 226.575C364.124 237.375 361.874 247.875 368.324 258.75C373.274 267.15 382.124 272.7 391.799 272.475C406.049 272.1 414.224 264 419.399 251.85C420.749 248.475 422.249 245.025 421.799 241.5Z" fill="#111214"/>
<path d="M219.15 224.85C218.025 228.15 220.05 231 220.425 234.075C221.625 244.05 220.65 253.875 217.875 263.475C213.6 267.825 210.75 273.3 205.05 276.45C193.575 282.825 181.425 283.05 169.275 280.425C163.8 279.225 157.575 277.275 154.275 271.8C152.175 268.275 149.475 265.275 146.925 262.2C141.225 251.25 139.725 239.85 143.175 227.925C146.325 220.05 152.025 213.9 156.975 207.525C159.675 206.7 162.15 206.7 164.55 205.725C179.7 199.5 194.025 202.275 207.975 209.85C214.125 213.225 216 219.45 219.15 224.85ZM210.9 242.475C212.4 226.125 195.15 210.9 180.975 211.725C166.575 212.625 151.95 220.575 152.475 241.275C153 259.125 163.8 270.75 180.375 271.725C197.85 272.775 211.95 255.075 210.9 242.475Z" fill="#111214"/>
<path d="M219.15 224.85C216 219.45 214.125 213.225 207.975 209.925C194.025 202.35 179.7 199.575 164.55 205.8C162.15 206.775 159.675 206.775 156.975 207.6C152.025 213.975 146.325 220.125 143.175 228C140.475 228 139.5 229.5 138.6 232.05C136.2 238.65 138.6 245.7 136.2 252.15C139.125 256.5 141.6 260.85 146.925 262.275C149.475 265.425 152.175 268.35 154.275 271.875C157.575 277.275 163.875 279.3 169.275 280.5C181.425 283.125 193.575 282.9 205.05 276.525C210.75 273.375 213.6 267.825 217.875 263.55C221.925 267.15 219 270.9 217.575 274.05C216.45 276.6 215.55 279 215.325 282C211.95 284.1 208.35 286.125 205.65 289.275C201 290.25 196.425 291.525 191.925 292.8C184.35 294.9 176.25 294.975 168.45 292.65C154.575 288.45 144.975 278.7 136.125 267.225C136.05 265.95 135.975 264.15 135.825 262.05C131.85 257.925 130.2 252.525 130.575 246.75C131.025 239.775 130.725 232.275 133.65 226.05C136.125 220.725 137.775 215.175 139.875 210.75C149.775 202.125 161.7 198.375 171.6 191.25C176.4 190.5 181.2 191.85 185.55 193.425C192.675 196.05 200.025 196.725 207.375 198.075C216.375 199.8 220.65 207.075 220.275 216.9C220.125 219.375 220.05 222.225 219.15 224.85Z" fill="#E3ECF0"/>
<path d="M237.75 313.201C235.575 309.301 231.45 306.9 233.7 301.5H335.1C336.525 305.025 335.4 309.225 336.6 313.2C303.225 313.2 270.45 313.201 237.75 313.201Z" fill="#111214"/>
<path d="M413.101 277.426C416.026 273.976 419.851 271.426 423.001 268.276C428.926 262.276 431.851 255.301 432.226 247.051C432.601 238.126 432.676 229.351 427.726 221.251C423.901 215.026 419.251 210.001 412.351 207.451C400.426 203.026 388.201 201.226 375.751 205.426C372.676 206.476 369.601 207.076 366.376 206.926C366.526 205.651 367.426 205.051 368.476 204.526C381.001 198.751 393.826 194.776 408.376 197.101C409.726 198.301 411.451 199.801 413.101 201.301C414.901 202.651 417.151 201.676 419.851 202.876C423.376 207.451 429.526 210.451 433.801 215.701C430.576 221.926 433.576 227.851 434.401 233.776C435.526 241.951 434.851 249.901 433.501 257.926C432.001 266.776 425.026 271.576 418.951 277.576C417.151 277.426 415.126 277.426 413.101 277.426Z" fill="#DFEAEE"/>
<path d="M352.499 241.725C353.174 246 354 250.201 354.6 254.476C355.65 261.751 359.4 267.601 364.275 273.526C379.499 283.426 395.924 285.151 413.099 277.501C411.374 284.026 406.424 286.651 400.499 286.951C391.274 287.401 381.974 288.001 373.125 283.726C365.025 279.901 358.35 275.101 355.2 266.326C353.325 261.076 349.5 256.576 348.975 250.726C348.525 246.901 347.924 243.3 352.499 241.725Z" fill="#DFEAEE"/>
<path d="M332.475 213.3C332.775 210.9 333.975 208.575 334.725 206.25C336.075 202.35 337.725 198.075 335.175 192.975C302.175 179.325 268.8 179.85 235.725 193.05C234.45 196.65 233.55 199.425 232.425 202.575C233.55 203.175 234.45 204.375 235.275 205.8C241.5 216.525 245.175 228.675 253.05 238.575C253.8 239.55 254.55 241.35 254.175 242.4C251.025 251.175 247.125 259.65 240.375 266.4C239.55 267.225 238.05 267.75 237.075 268.725C236.25 269.475 235.275 270.15 235.125 271.875C236.85 272.775 236.025 275.475 237.9 276.75C242.7 278.4 325.05 279.075 334.5 277.425C334.05 270.075 332.55 263.1 327.15 257.55C326.25 252.675 320.925 251.55 318.75 247.8C318.075 245.175 318 242.55 319.35 240.075C323.55 231.075 331.05 223.725 332.475 213.3ZM320.925 265.65C297.825 265.65 274.575 265.65 251.475 265.65C255.675 257.025 262.2 249.525 266.25 239.85C262.575 227.025 254.025 216.15 247.425 203.775C255.375 201.15 262.8 198.675 270.825 198.6C281.175 198.45 291.525 197.85 301.875 197.85C308.775 197.85 315.225 199.875 320.7 203.4C321.825 206.4 320.55 208.5 319.725 210.525C316.95 216.975 314.025 223.425 311.025 229.875C305.925 240.6 307.875 248.7 317.475 256.125C322.575 260.1 322.575 260.1 320.925 265.65Z" fill="#111214"/>
<path d="M251.475 265.65C255.675 257.025 262.2 249.525 266.25 239.85C262.575 227.025 254.025 216.15 247.425 203.775C255.375 201.15 262.8 198.675 270.825 198.6C281.175 198.45 291.525 197.85 301.875 197.85C308.775 197.85 315.225 199.875 320.7 203.4C321.825 206.4 320.55 208.5 319.725 210.525C316.95 216.975 314.025 223.425 311.025 229.875C305.925 240.6 307.875 248.7 317.475 256.125C322.65 260.1 322.65 260.1 320.925 265.65C297.75 265.65 274.575 265.65 251.475 265.65Z" fill="#F29904"/>
<path d="M421.8 241.5C422.25 245.025 420.75 248.4 419.325 251.775C414.15 264 405.975 272.1 391.725 272.4C382.125 272.625 373.2 267.075 368.25 258.675C361.8 247.8 364.05 237.3 367.575 226.5C368.175 224.775 369.15 223.275 370.5 221.925C378.75 213.75 390.075 208.725 400.65 212.625C412.65 217.125 421.35 228.825 421.8 241.5ZM402.975 248.7C400.65 245.625 402.45 242.775 403.5 239.925C401.925 238.05 400.5 236.475 399.15 234.975C394.05 238.8 388.575 237.825 383.325 237.225C381.975 238.425 381.075 239.625 380.85 241.5C382.2 244.95 382.725 248.85 386.1 251.85C391.575 254.025 396.75 252.9 402.975 248.7Z" fill="#F29904"/>
<path d="M210.9 242.475C211.95 255.075 197.85 272.7 180.375 271.725C163.8 270.75 153 259.2 152.475 241.275C151.875 220.575 166.575 212.625 180.975 211.725C195.225 210.9 212.475 226.125 210.9 242.475ZM192.825 236.475C186 228.15 183.6 227.325 176.025 230.325C171.15 235.575 168.675 241.2 172.35 248.1C181.275 255.225 184.8 254.775 192.675 245.4C193.275 242.625 193.125 239.7 192.825 236.475Z" fill="#F29904"/>
<path d="M146.85 262.275C141.525 260.85 139.05 256.425 136.125 252.15C138.525 245.625 136.125 238.65 138.525 232.05C139.425 229.5 140.4 228 143.1 228C139.725 239.925 141.15 251.325 146.85 262.275Z" fill="#DFEAEE"/>
<path d="M402.975 248.7C396.825 252.9 391.575 254.025 386.175 251.85C382.8 248.85 382.2 244.95 380.925 241.5C381.15 239.7 382.05 238.424 383.4 237.224C388.65 237.824 394.05 238.724 399.225 234.974C400.575 236.474 402 238.124 403.575 239.924C402.375 242.775 400.575 245.625 402.975 248.7Z" fill="#111214"/>
<path d="M192.825 236.475C193.125 239.7 193.275 242.625 192.75 245.475C184.875 254.775 181.35 255.225 172.425 248.175C168.75 241.275 171.225 235.575 176.1 230.4C183.6 227.325 186 228.15 192.825 236.475ZM188.775 239.4C186.15 235.95 182.925 234.75 179.4 234.3C176.1 237 176.1 237 175.35 240.9C180.225 246.975 183.3 246.75 188.775 239.4Z" fill="#111214"/>
<path d="M188.775 239.4C183.3 246.75 180.3 246.975 175.275 240.9C176.1 237 176.1 237 179.325 234.3C182.925 234.75 186.15 236.025 188.775 239.4Z" fill="#F29904"/>
<path d="M690.894 141.235C690.894 130.445 692.803 119.904 696.621 109.612C700.605 99.154 706.332 89.692 713.802 81.226C721.272 72.594 730.402 65.788 741.192 60.808C751.982 55.662 764.266 53.089 778.044 53.089C794.312 53.089 808.339 56.658 820.125 63.796C832.077 70.934 840.958 80.23 846.768 91.684L820.374 109.861C817.386 103.221 813.485 97.992 808.671 94.174C803.857 90.19 798.711 87.451 793.233 85.957C787.755 84.297 782.36 83.467 777.048 83.467C768.416 83.467 760.863 85.21 754.389 88.696C748.081 92.182 742.769 96.747 738.453 102.391C734.137 108.035 730.9 114.343 728.742 121.315C726.75 128.287 725.754 135.259 725.754 142.231C725.754 150.033 726.999 157.586 729.489 164.89C731.979 172.028 735.465 178.419 739.947 184.063C744.595 189.541 750.073 193.94 756.381 197.26C762.855 200.414 769.91 201.991 777.546 201.991C783.024 201.991 788.585 201.078 794.229 199.252C799.873 197.426 805.102 194.521 809.916 190.537C814.73 186.553 818.465 181.407 821.121 175.099L849.258 191.284C845.772 200.082 840.045 207.552 832.077 213.694C824.275 219.836 815.477 224.484 805.683 227.638C795.889 230.792 786.178 232.369 776.55 232.369C763.934 232.369 752.397 229.796 741.939 224.65C731.481 219.338 722.434 212.366 714.798 203.734C707.328 194.936 701.435 185.142 697.119 174.352C692.969 163.396 690.894 152.357 690.894 141.235ZM945.561 232.12C932.613 232.12 920.827 229.63 910.203 224.65C899.745 219.67 890.698 212.947 883.062 204.481C875.592 195.849 869.782 186.221 865.632 175.597C861.482 164.807 859.407 153.768 859.407 142.48C859.407 130.694 861.565 119.489 865.881 108.865C870.363 98.075 876.422 88.53 884.058 80.23C891.86 71.764 900.99 65.124 911.448 60.31C922.072 55.33 933.692 52.84 946.308 52.84C959.09 52.84 970.71 55.413 981.168 60.559C991.792 65.705 1000.84 72.594 1008.31 81.226C1015.78 89.858 1021.59 99.486 1025.74 110.11C1029.89 120.734 1031.96 131.69 1031.96 142.978C1031.96 154.598 1029.81 165.803 1025.49 176.593C1021.17 187.217 1015.11 196.762 1007.31 205.228C999.677 213.528 990.547 220.085 979.923 224.899C969.465 229.713 958.011 232.12 945.561 232.12ZM894.267 142.48C894.267 150.116 895.429 157.503 897.753 164.641C900.077 171.779 903.397 178.17 907.713 183.814C912.195 189.292 917.59 193.691 923.898 197.011C930.372 200.165 937.676 201.742 945.81 201.742C954.11 201.742 961.497 200.082 967.971 196.762C974.445 193.276 979.84 188.711 984.156 183.067C988.472 177.257 991.709 170.866 993.867 163.894C996.191 156.756 997.353 149.618 997.353 142.48C997.353 134.844 996.108 127.54 993.618 120.568C991.294 113.43 987.891 107.122 983.409 101.644C979.093 96 973.698 91.601 967.224 88.447C960.916 85.127 953.778 83.467 945.81 83.467C937.344 83.467 929.874 85.21 923.4 88.696C917.092 92.016 911.78 96.498 907.464 102.142C903.148 107.786 899.828 114.094 897.504 121.066C895.346 128.038 894.267 135.176 894.267 142.48ZM1133.27 232.12C1119.16 232.12 1107.13 229.796 1097.17 225.148C1087.37 220.334 1079.4 213.777 1073.26 205.477C1067.29 197.177 1062.89 187.798 1060.07 177.34C1057.24 166.716 1055.83 155.677 1055.83 144.223V54.085H1090.19V144.223C1090.19 151.527 1090.86 158.665 1092.19 165.637C1093.68 172.443 1096.09 178.585 1099.41 184.063C1102.73 189.541 1107.13 193.857 1112.6 197.011C1118.08 200.165 1124.89 201.742 1133.02 201.742C1141.32 201.742 1148.21 200.165 1153.69 197.011C1159.33 193.691 1163.73 189.292 1166.89 183.814C1170.21 178.336 1172.61 172.194 1174.11 165.388C1175.6 158.416 1176.35 151.361 1176.35 144.223V54.085H1210.46V144.223C1210.46 156.341 1208.97 167.712 1205.98 178.336C1203.16 188.96 1198.59 198.339 1192.28 206.473C1186.14 214.441 1178.17 220.749 1168.38 225.397C1158.59 229.879 1146.88 232.12 1133.27 232.12ZM1245.07 230.875V54.085H1323.26C1331.39 54.085 1338.86 55.745 1345.67 59.065C1352.64 62.385 1358.62 66.867 1363.6 72.511C1368.74 78.155 1372.64 84.463 1375.3 91.435C1378.12 98.407 1379.53 105.545 1379.53 112.849C1379.53 120.319 1378.2 127.54 1375.55 134.512C1373.06 141.318 1369.41 147.294 1364.59 152.44C1359.78 157.586 1354.13 161.57 1347.66 164.392L1388 230.875H1350.15L1313.8 171.613H1279.43V230.875H1245.07ZM1279.43 141.484H1322.51C1326.83 141.484 1330.65 140.239 1333.97 137.749C1337.29 135.093 1339.94 131.607 1341.93 127.291C1343.93 122.975 1344.92 118.161 1344.92 112.849C1344.92 107.205 1343.76 102.308 1341.44 98.158C1339.11 93.842 1336.12 90.439 1332.47 87.949C1328.99 85.459 1325.17 84.214 1321.02 84.214H1279.43V141.484ZM1515.99 100.399C1514.83 99.237 1512.67 97.66 1509.52 95.668C1506.53 93.676 1502.8 91.767 1498.32 89.941C1494 88.115 1489.27 86.538 1484.12 85.21C1478.98 83.716 1473.75 82.969 1468.44 82.969C1459.14 82.969 1452.08 84.712 1447.27 88.198C1442.62 91.684 1440.3 96.581 1440.3 102.889C1440.3 107.703 1441.79 111.521 1444.78 114.343C1447.77 117.165 1452.25 119.572 1458.23 121.564C1464.2 123.556 1471.67 125.714 1480.64 128.038C1492.26 130.86 1502.3 134.346 1510.77 138.496C1519.4 142.48 1525.95 147.792 1530.44 154.432C1535.08 160.906 1537.41 169.538 1537.41 180.328C1537.41 189.79 1535.67 197.924 1532.18 204.73C1528.69 211.37 1523.88 216.765 1517.74 220.915C1511.6 225.065 1504.62 228.136 1496.82 230.128C1489.02 231.954 1480.72 232.867 1471.92 232.867C1463.12 232.867 1454.33 231.954 1445.53 230.128C1436.73 228.302 1428.26 225.729 1420.13 222.409C1412 218.923 1404.53 214.773 1397.72 209.959L1412.91 180.328C1414.4 181.822 1417.06 183.814 1420.88 186.304C1424.69 188.628 1429.34 191.035 1434.82 193.525C1440.3 195.849 1446.27 197.841 1452.75 199.501C1459.22 201.161 1465.78 201.991 1472.42 201.991C1481.72 201.991 1488.77 200.414 1493.58 197.26C1498.4 194.106 1500.81 189.624 1500.81 183.814C1500.81 178.502 1498.9 174.352 1495.08 171.364C1491.26 168.376 1485.95 165.803 1479.14 163.645C1472.34 161.321 1464.29 158.831 1454.99 156.175C1443.87 153.021 1434.57 149.535 1427.1 145.717C1419.63 141.733 1414.07 136.753 1410.42 130.777C1406.77 124.801 1404.94 117.331 1404.94 108.367C1404.94 96.249 1407.76 86.123 1413.41 77.989C1419.22 69.689 1427.02 63.464 1436.81 59.314C1446.61 54.998 1457.48 52.84 1469.43 52.84C1477.73 52.84 1485.53 53.753 1492.84 55.579C1500.31 57.405 1507.28 59.812 1513.75 62.8C1520.23 65.788 1526.04 69.025 1531.18 72.511L1515.99 100.399ZM1686.13 200.746V230.875H1563.37V54.085H1683.89V84.214H1597.74V126.793H1672.19V154.681H1597.74V200.746H1686.13ZM690.894 365.235C690.894 354.445 692.803 343.904 696.621 333.612C700.605 323.154 706.332 313.692 713.802 305.226C721.272 296.594 730.402 289.788 741.192 284.808C751.982 279.662 764.266 277.089 778.044 277.089C794.312 277.089 808.339 280.658 820.125 287.796C832.077 294.934 840.958 304.23 846.768 315.684L820.374 333.861C817.386 327.221 813.485 321.992 808.671 318.174C803.857 314.19 798.711 311.451 793.233 309.957C787.755 308.297 782.36 307.467 777.048 307.467C768.416 307.467 760.863 309.21 754.389 312.696C748.081 316.182 742.769 320.747 738.453 326.391C734.137 332.035 730.9 338.343 728.742 345.315C726.75 352.287 725.754 359.259 725.754 366.231C725.754 374.033 726.999 381.586 729.489 388.89C731.979 396.028 735.465 402.419 739.947 408.063C744.595 413.541 750.073 417.94 756.381 421.26C762.855 424.414 769.91 425.991 777.546 425.991C783.024 425.991 788.585 425.078 794.229 423.252C799.873 421.426 805.102 418.521 809.916 414.537C814.73 410.553 818.465 405.407 821.121 399.099L849.258 415.284C845.772 424.082 840.045 431.552 832.077 437.694C824.275 443.836 815.477 448.484 805.683 451.638C795.889 454.792 786.178 456.369 776.55 456.369C763.934 456.369 752.397 453.796 741.939 448.65C731.481 443.338 722.434 436.366 714.798 427.734C707.328 418.936 701.435 409.142 697.119 398.352C692.969 387.396 690.894 376.357 690.894 365.235ZM872.302 454.875V278.085H950.488C958.622 278.085 966.092 279.745 972.898 283.065C979.87 286.385 985.846 290.867 990.826 296.511C995.972 302.155 999.873 308.463 1002.53 315.435C1005.35 322.407 1006.76 329.545 1006.76 336.849C1006.76 344.319 1005.43 351.54 1002.78 358.512C1000.29 365.318 996.636 371.294 991.822 376.44C987.008 381.586 981.364 385.57 974.89 388.392L1015.23 454.875H977.38L941.026 395.613H906.664V454.875H872.302ZM906.664 365.484H949.741C954.057 365.484 957.875 364.239 961.195 361.749C964.515 359.093 967.171 355.607 969.163 351.291C971.155 346.975 972.151 342.161 972.151 336.849C972.151 331.205 970.989 326.308 968.665 322.158C966.341 317.842 963.353 314.439 959.701 311.949C956.215 309.459 952.397 308.214 948.247 308.214H906.664V365.484ZM1037.9 454.875V278.085H1072.26V454.875H1037.9ZM1241.36 308.214H1184.84V454.875H1150.73V308.214H1094.2V278.085H1241.36V308.214ZM1263.31 454.875V278.085H1297.67V454.875H1263.31ZM1410 456.12C1397.06 456.12 1385.27 453.63 1374.65 448.65C1364.19 443.504 1355.14 436.698 1347.51 428.232C1340.04 419.766 1334.23 410.221 1330.08 399.597C1325.93 388.807 1323.85 377.768 1323.85 366.48C1323.85 354.694 1326.01 343.489 1330.32 332.865C1334.81 322.075 1340.87 312.53 1348.5 304.23C1356.3 295.764 1365.43 289.124 1375.89 284.31C1386.52 279.33 1398.14 276.84 1410.75 276.84C1423.53 276.84 1435.15 279.413 1445.61 284.559C1456.24 289.705 1465.28 296.594 1472.75 305.226C1480.22 313.858 1486.03 323.486 1490.18 334.11C1494.33 344.734 1496.41 355.69 1496.41 366.978C1496.41 378.598 1494.25 389.803 1489.93 400.593C1485.62 411.217 1479.56 420.762 1471.76 429.228C1464.12 437.528 1454.99 444.085 1444.37 448.899C1433.91 453.713 1422.45 456.12 1410 456.12ZM1410.25 425.742C1418.55 425.742 1425.94 424.082 1432.41 420.762C1438.89 417.276 1444.28 412.711 1448.6 407.067C1452.92 401.257 1456.15 394.866 1458.31 387.894C1460.63 380.756 1461.8 373.618 1461.8 366.48C1461.8 358.844 1460.55 351.457 1458.06 344.319C1455.74 337.181 1452.33 330.873 1447.85 325.395C1443.54 319.917 1438.14 315.518 1431.67 312.198C1425.36 308.878 1418.22 307.218 1410.25 307.218C1401.79 307.218 1394.32 308.961 1387.84 312.447C1381.54 315.767 1376.22 320.332 1371.91 326.142C1367.59 331.786 1364.27 338.094 1361.95 345.066C1359.79 352.038 1358.71 359.176 1358.71 366.48C1358.71 374.116 1359.87 381.503 1362.2 388.641C1364.52 395.779 1367.84 402.087 1372.16 407.565C1376.64 413.043 1382.03 417.442 1388.34 420.762C1394.82 424.082 1402.12 425.742 1410.25 425.742ZM1406.77 389.388H1439.14L1497.4 454.875H1465.03L1406.77 389.388ZM1597.47 456.12C1583.36 456.12 1571.33 453.796 1561.37 449.148C1551.57 444.334 1543.6 437.777 1537.46 429.477C1531.49 421.177 1527.09 411.798 1524.27 401.34C1521.44 390.716 1520.03 379.677 1520.03 368.223V278.085H1554.39V368.223C1554.39 375.527 1555.06 382.665 1556.39 389.637C1557.88 396.443 1560.29 402.585 1563.61 408.063C1566.93 413.541 1571.33 417.857 1576.8 421.011C1582.28 424.165 1589.09 425.742 1597.22 425.742C1605.52 425.742 1612.41 424.165 1617.89 421.011C1623.53 417.691 1627.93 413.292 1631.09 407.814C1634.41 402.336 1636.81 396.194 1638.31 389.388C1639.8 382.416 1640.55 375.361 1640.55 368.223V278.085H1674.66V368.223C1674.66 380.341 1673.17 391.712 1670.18 402.336C1667.36 412.96 1662.79 422.339 1656.48 430.473C1650.34 438.441 1642.37 444.749 1632.58 449.397C1622.79 453.879 1611.08 456.12 1597.47 456.12ZM1832.03 424.746V454.875H1709.27V278.085H1829.79V308.214H1743.63V350.793H1818.09V378.681H1743.63V424.746H1832.03Z" fill="#344155"/>
</svg>
